P2
# comments 
5 4
255
   4    5    6    7    7
   9   10   11   12   12
  14   15   16   17   17
  16   17   18   19   20
