P2
# Created 
# by 
# IrfanView
40 40
255
 192  192  192  192  192  192  192  192  192  192  192  192  192  192  192  192  192  192  192  192  192  192  192  192  192  192  192  192  196  192  192  192  192  192  192  192  192  192  192  192
 192  152  152  152  152  147  147  147  147  147  147  147  142  142  147  147  147  147  147  147  147  147  171  192  192  192  196  192  192  192  192  159  147  147  147  192  192  192  192  192
 167  147  152  152  152  147  147  147  147  147  147  136   87   36   36   88  147  147  147  147  147  147  171  191  192  192  192  192  192  191  155   51   67  118  118  147  192  192  192  192
 167  164  190  192  190  191  191  214  246  246  246  205   87   36   36   79   96  194  246  246  246  222  197  192  192  192  196  192  192  123   38   19   51  116  110  118  192  192  192  192
 192  192  192  192  192  195  197  215  246  255  255  253  239  135   96  104  194  213  246  255  255  246  211  196  192  192  192  191  123  115   38   36  130  120  120  120  192  192  192  192
 192  192  192  192  192  192  196  197  215  255  255  255  253  240  229  226  207  207  215  255  255  240  197  194  196  192  192  136  123  162  208  215  235  226  120  120  192  192  192  192
 192  192  192  192  192  192  194  194  196  215  255  255  255  255  255  255  253  213  207  248  248  223  194  192  192  192  177  136  181  208  253  255  255  255  120  120  192  192  192  192
 192  191  192  196  196  192  192  193  196  196  218  255  255  255  255  255  255  253  207  223  223  199  196  192  192  177  136  181  197  253  255  255  255  255  120  120  192  192  192  192
 143  143  192  192  192  192  192  192  192  196  197  231  255  255  255  255  255  255  251  165  191  196  196  192  191  177  177  191  245  255  255  255  255  255  120  120  192  192  192  192
 140  140  197  197  192  192  192  192  192  192  196  200  241  255  255  255  255  255  255  223  191  192  196  192  180  142  182  214  253  255  255  255  255  255  120  120  192  192  192  192
 140  140  202  210  192  192  192  192  192  192  196  196  205  255  255  255  255  255  255  225  178  191  192  191  142  142  197  248  255  255  255  255  255  255  120  120  192  192  192  192
 140  140  247  248  217  196  192  192  192  192  196  196  197  212  255  255  255  255  234  138  136  122  191  142  128  134  145  224  255  255  255  255  255  255  120  120  192  192  192  192
 140  140  255  255  252  226  196  192  192  192  192  192  196  198  232  248  248  183  138  136  136  122  149  116  128  128  134  145  247  255  255  255  255  255  120  120  192  192  192  192
 140  140  255  255  255  252  226  196  192  192  178  191  191  192  198  199  183  164  138  136  122  102   33   76  116  128  134  145  190  236  255  255  255  255  120  120  192  192  192  192
 140  140  255  255  255  255  235  230  230  178  167   99   84   99   99  149  129  129  118  118  112   24    6    9   76   81  118  119  119  176  247  255  255  255  120  120  192  192  192  192
 140  140  255  255  255  255  255  249  255  240  157   84   77   99   77   38   31   47   47   41   24    6    6    6    9   36   41   44   44   55  176  255  255  255  120  120  192  192  192  192
 140  140  255  255  255  255  255  255  255  255  188   99   99  102   99   38    6    6    6    6    6    6    6    6    6    6    6    6    6   44  173  255  255  255  120  120  192  192  192  192
 140  140  255  255  255  255  255  255  255  255  250  138  107  107   86   42    6    6    6    6    6    6    6    6    6    6    6    6    6  122  173  255  255  255  120  120  192  192  192  192
 140  140  255  255  255  255  236  236  255  255  255  248  138  107   86   86   42   81    6    6    6    6    6    6    6    6    6   81   87  173  204  255  255  255  120  120  192  192  192  192
 140  140  255  255  255  255  236  222  249  255  255  255  248  188   97   97   97  131  131  126  104   66   66   66  104  126  177  177  136  173  237  255  255  255  120  120  192  192  192  192
 140  140  255  255  255  255  255  236  222  249  255  255  255  250  226   98   97  110  177  186  223  223  223  223  223  212  181  173  136  173  253  255  255  255  120  120  192  192  192  192
 140  140  255  255  255  255  255  222  161  214  255  255  255  255  255  226   97   61   75  186  223  223  223  223  223  212  109   51   88  242  255  255  255  255  120  120  192  192  192  192
 140  140  255  255  255  255  254  202  202  249  255  255  255  255  255  255  200   61   22   66   97  131  146  146   97   97   28   28   51  242  255  255  255  255  120  120  192  192  192  192
 140  140  255  255  255  255  212  212  243  255  255  255  255  255  255  255  253  183   97   66   97  104  131  146   97   97   97   22   51  207  255  255  255  255  120  120  192  192  192  192
 140  140  255  255  255  227  212  249  255  255  255  255  255  255  255  255  255  240  183  138  114  134  134  158  196  215  182  105  105  139  255  255  255  255  120  120  192  192  192  192
 140  140  255  255  227  212  243  255  255  255  255  255  255  255  255  255  255  255  240  209  149  158  158  245  234  219  151  105  105  151  255  255  255  255  120  120  192  192  192  192
 140  140  255  255  227  207  189  253  234  255  255  255  255  255  255  255  255  255  255  240  207  205  149  245  234  138  137  137  151  247  255  255  255  255  120  120  192  192  192  192
 140  140  255  255  250  207  189  234  234  251  255  255  255  255  255  255  255  255  255  255  207  149  115  115  131  137  138  226  247  255  255  255  255  255  120  120  192  192  192  192
 140  140  255  255  255  226  161  248  249  251  255  255  255  255  255  255  255  255  255  255  245  144  115  115  131  215  249  255  255  255  255  255  255  255  120  120  192  192  192  192
 140  140  255  255  255  226  192  248  249  249  254  255  255  255  255  255  255  255  255  255  227  171  163  191  219  250  255  255  255  255  255  255  255  255  120  120  192  192  192  192
 140  140  255  255  255  212  192  231  238  238  249  255  255  255  255  255  255  255  255  233  207  191  196  235  255  255  255  255  255  255  255  255  255  255  120  120  192  192  192  192
 140  140  255  255  255  207  192  192  238  240  255  255  255  255  255  255  255  255  232  227  227  233  251  255  255  255  255  255  255  255  255  255  255  255  120  120  192  192  192  192
 140  140  255  255  223  207  173  173  238  240  250  255  255  255  255  255  255  231  226  232  251  254  255  255  255  255  255  255  255  255  255  255  255  255  120  120  192  192  192  192
 140  140  144  223  207  134  134  167  214  226  247  255  255  255  255  255  231  128  149  186  251  254  254  255  255  255  255  255  255  255  255  255  255  186  120  120  192  192  192  192
 140  140   79   90   61   75   90  134  167  214  226  247  253  255  236  176   98   98   98  149  186  186  186  186  186  186  186  186  186  186  186  186  186  120  109  110  192  192  192  192
 176  140   90   90   61   88  121  138  176  214  226  215  178  176  176  175  116  101  101  101  136  140  175  175  175  175  175  175  175  175  175  175  175  175  110  175  192  192  192  192
 192  177  177  177  175  175  175  176  177  183  183  183  178  176  176  176  176  175  172  136  136  140  175  175  175  175  175  175  175  175  175  175  175  175  175  192  192  192  192  192
 192  192  192  192  192  192  192  192  186  183  183  186  190  192  192  192  192  192  192  189  188  188  192  192  192  192  192  192  192  192  192  192  192  192  192  192  192  192  192  192
 192  192  192  192  192  192  192  192  192  189  189  191  192  192  192  192  192  192  192  192  190  192  192  192  192  192  192  192  192  192  192  192  192  192  192  192  192  192  192  192
 192  192  192  192  192  192  192  192  192  192  192  192  192  192  192  192  192  192  192  192  192  192  192  192  192  192  192  192  192  192  192  192  192  192  192  192  192  192  192  192
