P2
# comments 
3 2
255
   7    9   10
  17   19   20
