P2
# Created 
# by 
# IrfanView
40 40
255
192 192 192 192 192 192 192 192 192 192 192 192 192 192 192 192 192 
192 192 192 192 192 192 192 192 196 191 192 192 197 196 196 192 
192 192 192 192 192 192 192 192 192 192 192 192 192 192 192 192 192 192 192 192 192 192 192 192 
192 192 192 192 192 192 192 192 192 196 191 196 192 192 192 196 
192 192 192 192 192 192 192 192 175 147 147 147 147 147 147 147 147 147 147 147 136 142 147 147 
147 147 147 147 147 147 147 171 196 192 191 197 191 196 191 159 
147 147 147 159 192 192 192 192 143 78 152 169 152 113 78 78 78 78 78 87 18 18 36 88 
78 78 78 78 78 78 78 189 192 196 196 192 196 192 155 51 
19 67 78 102 192 192 192 192 140 167 195 190 195 187 214 246 246 246 246 239 67 6 7 28 
207 246 246 246 246 246 222 197 191 191 191 197 191 115 13 8 
6 130 118 109 192 192 192 192 164 191 192 196 192 191 203 217 255 255 255 253 205 135 79 96 
104 194 255 255 255 255 211 197 191 196 196 192 123 38 6 36 
116 226 120 110 192 192 192 192 192 192 196 192 191 196 197 194 215 255 255 255 253 240 226 229 
213 90 215 255 255 240 194 192 196 192 192 112 88 162 208 215 
235 255 120 99 192 192 192 192 178 196 192 196 196 192 192 196 193 212 255 255 255 255 255 255 
254 207 69 248 255 223 191 196 192 196 136 86 181 225 255 255 
255 255 120 108 192 192 192 192 143 192 191 192 192 196 191 192 196 192 218 255 255 255 255 255 
255 253 165 145 255 199 191 192 196 177 54 181 197 253 255 255 
255 255 120 98 192 192 192 192 140 142 197 197 197 191 197 197 191 197 192 231 255 255 255 255 
255 255 251 50 223 191 197 197 191 89 130 191 245 255 255 255 
255 255 120 109 192 192 192 192 140 88 210 192 192 196 192 192 196 192 196 200 241 255 255 255 
255 255 255 146 149 196 192 197 180 44 182 214 253 255 255 255 
255 255 120 100 192 192 192 192 140 72 247 202 191 192 196 191 192 196 192 196 205 255 255 255 
255 255 255 234 61 197 191 192 142 109 197 249 255 255 255 255 
255 255 120 108 192 192 192 192 140 72 255 248 217 191 192 196 191 192 196 192 197 212 255 255 
255 255 248 225 74 178 196 191 107 139 204 248 255 255 255 255 
255 255 120 99 192 192 192 192 140 72 255 255 252 226 196 192 196 196 192 196 192 198 232 255 
248 183 138 136 122 102 24 110 116 128 134 145 224 255 255 255 
255 255 120 109 192 192 192 192 140 72 255 255 255 254 235 153 115 178 197 178 191 197 199 247 
162 129 118 112 157 192 6 149 231 81 118 119 138 247 255 255 
255 255 120 98 192 192 192 192 140 72 255 255 255 255 151 230 249 157 167 62 27 77 149 31 
164 230 177 147 119 33 6 16 76 141 147 228 190 55 236 255 
255 255 120 100 192 192 192 192 140 72 255 255 255 255 134 255 255 240 99 76 84 99 38 6 
38 53 47 41 24 6 6 6 9 36 41 53 44 9 176 255 
255 255 120 108 192 192 192 192 140 72 255 255 255 255 149 255 255 255 188 16 102 151 132 6 
6 6 6 6 6 6 6 6 6 6 6 6 6 6 153 255 
255 255 120 99 192 192 192 192 140 72 255 255 255 255 121 255 255 255 250 107 73 130 107 42 
6 6 6 6 6 6 6 6 6 6 6 6 6 122 173 255 
255 255 120 109 192 192 192 192 140 72 255 255 255 255 174 207 255 255 255 248 138 57 86 24 
182 81 6 6 6 6 6 6 6 6 6 81 196 87 204 255 
255 255 120 98 192 192 192 192 140 72 255 255 255 255 236 139 249 255 255 255 228 188 98 10 
110 215 177 126 104 66 66 66 104 126 177 215 173 38 237 255 
255 255 120 107 192 192 192 192 140 72 255 255 255 255 255 222 116 249 255 255 255 250 226 97 
21 131 244 237 232 223 223 223 232 237 250 181 36 136 253 255 
255 255 120 99 192 192 192 192 140 72 255 255 255 255 255 254 142 88 255 255 255 255 255 235 
61 20 75 186 255 255 255 255 255 212 109 28 88 242 255 255 
255 255 120 108 192 192 192 192 140 72 255 255 255 255 255 161 129 214 255 255 255 255 255 255 
200 21 10 22 66 131 161 146 88 25 14 6 51 255 255 255 
255 255 120 98 192 192 192 192 140 72 255 255 255 247 109 202 249 254 255 255 255 255 255 255 
253 183 15 97 8 11 13 12 9 97 182 22 8 207 255 255 
255 255 120 109 192 192 192 192 140 72 255 255 255 137 212 243 255 255 255 255 255 255 255 255 
255 240 138 114 147 104 158 158 196 219 240 151 6 139 255 255 
255 255 120 100 192 192 192 192 140 72 255 255 227 161 253 255 255 255 255 255 255 255 255 255 
255 255 240 209 215 134 245 245 255 255 215 105 6 105 255 255 
255 255 120 108 192 192 192 192 140 72 255 255 207 189 255 255 234 234 255 255 255 255 255 255 
255 255 255 251 207 149 255 255 234 138 34 32 151 233 255 255 
255 255 120 110 192 192 192 192 140 72 255 255 250 125 161 131 169 230 255 255 255 255 255 255 
255 255 255 255 205 20 66 131 27 17 137 226 247 255 255 255 
255 255 120 98 192 192 192 192 140 72 255 255 255 118 226 248 251 254 255 255 255 255 255 255 
255 255 255 255 245 81 115 11 81 219 250 255 255 255 255 255 
255 255 120 109 192 192 192 192 140 72 255 255 255 143 249 255 255 249 196 255 255 255 255 255 
255 255 255 255 253 144 191 196 215 249 255 255 255 255 255 255 
255 255 120 100 192 192 192 192 140 72 255 255 255 111 192 157 157 169 213 255 255 255 255 255 
255 255 255 227 171 163 173 255 255 255 255 255 255 255 255 255 
255 255 120 108 192 192 192 192 140 72 255 255 255 212 140 231 238 240 250 255 255 255 255 255 
255 255 226 104 233 207 235 255 255 255 255 255 255 255 255 255 
255 255 120 110 192 192 192 192 140 72 255 255 255 207 173 254 255 255 255 255 255 255 255 255 
255 248 128 232 254 251 254 255 255 255 255 255 255 255 255 255 
255 255 120 98 192 192 192 192 140 72 255 223 223 107 75 156 167 140 140 247 255 255 255 255 
231 78 149 255 255 255 255 255 255 255 255 255 255 255 255 255 
255 255 120 109 192 192 192 192 140 72 144 57 57 36 134 121 214 226 226 253 255 255 236 176 
116 98 101 177 186 186 186 186 186 186 186 186 186 186 186 186 
186 186 102 110 192 192 192 192 140 79 90 70 59 61 88 90 176 255 255 215 171 122 109 96 
74 88 57 34 64 90 90 90 90 90 90 90 90 90 90 90 
90 90 77 99 192 192 192 192 185 176 177 177 175 175 175 177 138 124 117 144 172 178 176 176 
175 176 172 136 66 140 175 175 175 175 175 175 175 175 175 175 
175 175 175 178 192 192 192 192 192 192 192 192 192 192 192 192 186 183 183 186 190 192 192 192 
192 192 192 189 180 188 192 192 192 192 192 192 192 192 192 192 
192 192 192 192 192 192 192 192 192 192 192 192 192 192 192 192 192 192 192 192 192 192 192 192 
192 192 192 192 192 192 192 192 192 192 192 192 192 192 192 192 
192 192 192 192 192 192 192 