P2
14 14
255
192 192 192 192 192 192 192 192 196 197 196 192 192 192
192 196 246 255 253 207 255 255 197 197 192 226 192 192
196 196 197 255 255 255 255 255 196 197 255 255 192 192
192 247 197 197 255 255 255 223 197 255 255 255 192 192
192 255 254 197 212 255 255 196 231 255 255 255 192 192
192 255 255 255 151 164 230 119 141 228 255 255 192 192
192 255 255 255 255 182 215 104 126 215 255 255 192 192
192 255 255 255 255 255 244 255 255 250 255 255 192 192
192 255 255 255 255 255 255 245 255 240 255 255 192 192
192 255 255 255 255 255 255 255 255 255 255 255 192 192
192 255 255 255 255 255 255 253 255 255 255 255 192 192
192 255 254 255 255 255 255 255 255 255 255 255 192 192
192 192 192 255 215 192 192 192 192 192 192 192 192 192
192 192 192 192 192 192 192 192 192 192 192 192 192 192
